#tb 0: 1/25
#media_type 0: video
#codec_id 0: rawvideo
#dimensions 0: 1920x1080
#sar 0: 0/1
0,          0,          0,        1,  3110400, 0x96995c57
0,          1,          1,        1,  3110400, 0x2924a10f
0,          2,          2,        1,  3110400, 0x892e146c
0,          3,          3,        1,  3110400, 0x9b0b8733
0,          4,          4,        1,  3110400, 0xb09ffc2d
0,          5,          5,        1,  3110400, 0x588e04a0
0,          6,          6,        1,  3110400, 0xa9ed178c
0,          7,          7,        1,  3110400, 0x54254788
0,          8,          8,        1,  3110400, 0x4fa444bc
0,          9,          9,        1,  3110400, 0xe97d958a
0,         10,         10,        1,  3110400, 0x8e168461
0,         11,         11,        1,  3110400, 0xc39e551f
0,         12,         12,        1,  3110400, 0xb5649a69
0,         13,         13,        1,  3110400, 0x64eb3085
0,         14,         14,        1,  3110400, 0xb4485019
0,         15,         15,        1,  3110400, 0x989e4c47
0,         16,         16,        1,  3110400, 0x0ff21984
0,         17,         17,        1,  3110400, 0xe81b3ddd
0,         18,         18,        1,  3110400, 0x6404610f
0,         19,         19,        1,  3110400, 0xa61c3403
0,         20,         20,        1,  3110400, 0x033ca068
0,         21,         21,        1,  3110400, 0x3513dff4
0,         22,         22,        1,  3110400, 0xe903a3c2
0,         23,         23,        1,  3110400, 0xd40b3248
0,         24,         24,        1,  3110400, 0xa257fb35
0,         25,         25,        1,  3110400, 0x6fcab221
0,         26,         26,        1,  3110400, 0x079a34c7
0,         27,         27,        1,  3110400, 0x7308ecbc
0,         28,         28,        1,  3110400, 0x1cf2dffb
0,         29,         29,        1,  3110400, 0x59a0a84d
0,         30,         30,        1,  3110400, 0x6b76450f
0,         31,         31,        1,  3110400, 0x27de01f3
0,         32,         32,        1,  3110400, 0x8541fe8b
0,         33,         33,        1,  3110400, 0x07b740d9
0,         34,         34,        1,  3110400, 0x735d36e9
0,         35,         35,        1,  3110400, 0x0336ac98
0,         36,         36,        1,  3110400, 0xab9f7d33
0,         37,         37,        1,  3110400, 0xc5f62e67
0,         38,         38,        1,  3110400, 0x68d6c250
0,         39,         39,        1,  3110400, 0xaf26c339
0,         40,         40,        1,  3110400, 0xfa920d0f
0,         41,         41,        1,  3110400, 0xac9c6a89
0,         42,         42,        1,  3110400, 0xa0d0cbd0
0,         43,         43,        1,  3110400, 0x9d517b81
0,         44,         44,        1,  3110400, 0x3c3b2b89
0,         45,         45,        1,  3110400, 0x3cf50b0c
0,         46,         46,        1,  3110400, 0xee319ebe
0,         47,         47,        1,  3110400, 0x5b7c3397
0,         48,         48,        1,  3110400, 0x1a089921
0,         49,         49,        1,  3110400, 0x69718487
